<svg width="370" height="122" viewBox="0 0 370 122" fill="none" xmlns="http://www.w3.org/2000/svg">
<mask id="mask0_8029_58608" style="mask-type:alpha" maskUnits="userSpaceOnUse" x="19" y="17" width="85" height="87">
<path d="M40.9397 88.5004C40.0635 88.0724 39.592 88.6263 39.592 89.9719C39.592 91.3174 39.6434 96.1536 40.6916 98.2105C41.6591 100.109 43.2029 101.653 45.1018 102.621C46.7518 103.461 48.7915 103.66 52.1849 103.706C61.5306 103.29 69.7093 98.3865 74.6194 91.0988C75.0554 90.4517 74.576 89.6068 73.7957 89.6068H51.4866C48.389 89.6068 43.7357 89.8662 40.9397 88.5004Z" fill="#D9D9D9"/>
<path d="M37.0974 46.8922C37.0974 45.5154 35.2771 45.0222 34.5888 46.2146C32.7778 49.3516 29.9373 54.2716 25.9096 61.2463C18.8567 73.46 21.2863 89.8385 34.8823 99.0544C36.5642 100.194 37.9097 98.3816 37.5834 96.9618C36.8892 94.0594 37.0974 90.8368 37.0974 87.8577V46.8922Z" fill="#D9D9D9"/>
<path d="M91.2307 59.6915C91.2981 60.6644 92.0136 60.7957 93.1789 60.1229C94.3441 59.4501 98.5067 56.9875 99.7639 55.0513C100.925 53.264 101.49 51.1551 101.378 49.0269C101.281 47.1776 100.433 45.3121 98.7767 42.3499C93.743 34.4647 85.4075 29.8332 76.6411 29.2248C75.8627 29.1708 75.3707 30.0084 75.7609 30.6842L86.9154 50.0044C88.4642 52.687 91.0154 56.5872 91.2307 59.6915Z" fill="#D9D9D9"/>
<path d="M57.1176 83.823C55.9253 84.5114 56.4083 86.3344 57.7851 86.3343C61.4073 86.3342 67.0884 86.3342 75.1425 86.3348C89.2464 86.336 102.216 76.0426 103.399 59.6603C103.545 57.6336 101.303 57.3748 100.236 58.3673C98.0697 60.4197 95.1747 61.8507 92.5948 63.3403L57.1176 83.823Z" fill="#D9D9D9"/>
<path d="M41.8128 30.8033C42.6216 30.2585 42.3777 29.5732 41.2124 28.9004C40.0471 28.2276 35.8331 25.8541 33.5277 25.7334C31.3995 25.6218 29.2906 26.1869 27.5033 27.3476C25.9502 28.3562 24.7588 30.0236 23.0216 32.939C18.7096 41.241 18.8664 50.7755 22.7227 58.6716C23.0651 59.3728 24.0365 59.38 24.4267 58.7042L35.5812 39.384C37.13 36.7014 39.2321 32.5419 41.8128 30.8033Z" fill="#D9D9D9"/>
<path d="M79.7682 48.2801C80.9606 48.9685 82.2978 47.6387 81.6094 46.4464C79.7982 43.3096 76.9576 38.3896 72.9311 31.4142C65.8802 19.1993 50.4812 13.1142 35.702 20.2806C33.8737 21.1672 34.7709 23.2389 36.1637 23.6662C39.0243 24.5162 41.7111 26.3078 44.2911 27.7973L79.7682 48.2801Z" fill="#D9D9D9"/>
</mask>
<g mask="url(#mask0_8029_58608)">
<rect x="10.4619" y="9.24127" width="102.485" height="102.485" fill="#3C8FE8"/>
<ellipse cx="125.604" cy="62.9279" rx="84.8509" ry="84.851" fill="url(#paint0_radial_8029_58608)"/>
<circle cx="119.406" cy="45.5561" r="36.9259" fill="url(#paint1_radial_8029_58608)"/>
<ellipse cx="9.41428" cy="97.0603" rx="44.7824" ry="44.7824" fill="url(#paint2_radial_8029_58608)"/>
<path opacity="0.6" d="M37.1002 83.6657V46.8905C37.1002 45.5139 35.2777 45.0256 34.5894 46.2178L25.3287 62.2577L37.1002 83.6657Z" fill="url(#paint3_linear_8029_58608)"/>
<path opacity="0.6" d="M89.0097 65.4156L57.1615 83.8032C55.9693 84.4915 56.4576 86.314 57.8342 86.314L76.3556 86.314L89.0097 65.4156Z" fill="url(#paint4_linear_8029_58608)"/>
<path opacity="0.6" d="M47.8994 29.8614L79.7477 48.249C80.9399 48.9373 82.2741 47.6031 81.5858 46.4109L72.3251 30.371L47.8994 29.8614Z" fill="url(#paint5_linear_8029_58608)"/>
</g>
<path d="M277.677 42.4847C277.677 41.9842 277.38 41.5299 276.915 41.3478C273.567 40.0371 269.285 39.0971 263.592 39.0974C257.745 39.0976 252.47 41.184 248.682 45.2489C244.911 49.2955 242.944 54.9433 242.972 61.4936C243.024 73.8218 252.528 81.9064 263.03 81.7493C270.799 81.6331 274.684 80.07 276.866 78.8886C278.635 77.9307 279.622 76.1002 279.622 74.2368V61.7413C279.622 59.4846 277.797 57.6554 275.545 57.6554H264.215C263.527 57.6554 262.97 58.214 262.97 58.903V64.5172C262.97 65.2062 263.527 65.7648 264.215 65.7648H270.284C270.972 65.7648 271.53 66.3234 271.53 67.0124V71.5381C271.53 72.0651 271.201 72.5394 270.695 72.6858C269.105 73.1464 266.653 73.5848 262.91 73.6408C256.728 73.7332 251.097 69.0944 251.064 61.4588C251.043 56.5478 252.5 53.0338 254.597 50.7837C256.676 48.552 259.713 47.2069 263.593 47.2068C268.938 47.2065 272.425 48.187 274.833 49.2627C275.137 49.3988 275.423 49.5341 275.692 49.6691C276.575 50.1112 277.677 49.5049 277.677 48.5159V42.4847Z" fill="#232833"/>
<path d="M132.475 40.1121C131.615 40.1121 130.919 40.8103 130.919 41.6716V79.2556C130.919 80.1169 131.615 80.8152 132.475 80.8152H138.233C139.093 80.8152 139.789 80.1169 139.789 79.2556V63.8166H158.465V79.2556C158.465 80.1169 159.162 80.8152 160.021 80.8152H165.78C166.639 80.8152 167.336 80.1169 167.336 79.2556V41.6716C167.336 40.8103 166.639 40.1121 165.78 40.1121H160.021C159.162 40.1121 158.465 40.8103 158.465 41.6716V56.3309L139.789 56.3309V41.6716C139.789 40.8103 139.093 40.1121 138.233 40.1121H132.475Z" fill="#232833"/>
<path d="M205.776 51.9211C205.776 52.055 205.806 52.1873 205.864 52.308L218.567 78.7645L217.937 80.2433C216.803 82.9067 214.464 84.8648 211.647 85.5102L210.446 85.7854C209.775 85.939 209.356 86.608 209.51 87.2797L210.758 92.7527C210.911 93.4244 211.579 93.8444 212.249 93.6909L213.451 93.4157C218.794 92.1916 223.229 88.478 225.38 83.4267L238.44 52.766C238.79 51.9429 238.188 51.0286 237.295 51.0286H231.203C230.704 51.0286 230.254 51.3268 230.058 51.7865L222.789 68.8529L214.57 51.7353C214.363 51.3033 213.926 51.0286 213.448 51.0286H206.667C206.175 51.0286 205.776 51.4282 205.776 51.9211Z" fill="#232833"/>
<path d="M321.409 49.781C320.549 49.781 319.852 50.4792 319.852 51.3405V79.2556C319.852 80.1169 320.549 80.8152 321.409 80.8152H327.167C328.026 80.8152 328.723 80.1169 328.723 79.2556V60.1303C330.681 58.6511 332.619 57.8904 334.948 57.8904C337.905 57.8904 339.773 59.3271 339.773 61.3042V79.2556C339.773 80.1169 340.47 80.8152 341.329 80.8152H346.309C347.169 80.8152 347.866 80.1169 347.866 79.2556V61.1482C347.866 54.3816 342.462 50.8727 336.311 50.8727C333.204 50.9225 330.78 52.245 328.723 53.9162V51.3405C328.723 50.4792 328.026 49.781 327.167 49.781H321.409Z" fill="#232833"/>
<path fill-rule="evenodd" clip-rule="evenodd" d="M189.805 49.781C185.097 49.781 181.083 51.375 178.261 54.378C175.472 57.346 174.184 61.3311 174.184 65.5239C174.184 69.434 175.035 73.606 177.771 76.843C180.605 80.1964 184.911 81.9068 190.437 81.9068C195.119 81.9068 199.384 80.5787 202.771 79.0329C202.991 78.9326 203.131 78.712 203.131 78.47V71.4858C203.131 70.9977 202.596 70.6963 202.173 70.9379C199.234 72.6155 195.004 74.4212 190.437 74.4212C186.479 74.4212 184.525 73.2516 183.471 72.0049C182.637 71.0174 182.057 69.6179 181.801 67.7922H202.814C203.158 67.7922 203.437 67.5133 203.432 67.1688C203.384 64.1685 202.967 60.2225 201.286 56.8327C200.359 54.9637 198.997 53.1592 197.012 51.8308C195.004 50.4868 192.582 49.781 189.805 49.781ZM195.486 62.8018C195.274 61.8423 194.984 60.9452 194.596 60.1633C194.111 59.1853 193.531 58.5026 192.863 58.0557C192.219 57.6244 191.277 57.2666 189.805 57.2666C186.828 57.2666 184.899 58.2327 183.699 59.5097C182.926 60.3329 182.318 61.4328 181.972 62.8018H195.486Z" fill="#232833"/>
<path fill-rule="evenodd" clip-rule="evenodd" d="M288.913 54.378C291.735 51.375 295.749 49.781 300.457 49.781C306.063 49.781 309.653 52.9886 311.634 56.7514C313.399 60.1034 314.012 64.0337 314.082 67.1685C314.09 67.513 313.81 67.7922 313.466 67.7922H292.454C292.71 69.6179 293.289 71.0174 294.124 72.0049C295.177 73.2516 297.131 74.4212 301.09 74.4212C305.656 74.4212 309.886 72.6155 312.825 70.9379C313.248 70.6963 313.783 70.9977 313.783 71.4858V78.47C313.783 78.712 313.643 78.9326 313.424 79.0329C310.036 80.5787 305.771 81.9068 301.09 81.9068C295.563 81.9068 291.258 80.1964 288.423 76.843C285.687 73.606 284.836 69.434 284.836 65.5239C284.836 61.3311 286.124 57.346 288.913 54.378ZM305.027 60.2446C305.432 61.0124 305.752 61.883 305.996 62.8018H292.624C292.97 61.4328 293.578 60.3329 294.352 59.5097C295.552 58.2327 297.48 57.2666 300.457 57.2666C302.652 57.2666 304.01 58.3132 305.027 60.2446Z" fill="#232833"/>
<defs>
<radialGradient id="paint0_radial_8029_58608" cx="0" cy="0" r="1" gradientUnits="userSpaceOnUse" gradientTransform="translate(125.604 62.9279) rotate(90) scale(84.851 84.8509)">
<stop offset="0.510417" stop-color="#8535F2"/>
<stop offset="1" stop-color="#8535F2" stop-opacity="0"/>
</radialGradient>
<radialGradient id="paint1_radial_8029_58608" cx="0" cy="0" r="1" gradientUnits="userSpaceOnUse" gradientTransform="translate(119.406 45.5561) rotate(90) scale(36.9259)">
<stop stop-color="#FF439D"/>
<stop offset="1" stop-color="#FF439D" stop-opacity="0"/>
</radialGradient>
<radialGradient id="paint2_radial_8029_58608" cx="0" cy="0" r="1" gradientUnits="userSpaceOnUse" gradientTransform="translate(9.41428 97.0603) rotate(90) scale(44.7824 44.7824)">
<stop stop-color="#44E7FF"/>
<stop offset="1" stop-color="#44E7FF" stop-opacity="0"/>
</radialGradient>
<linearGradient id="paint3_linear_8029_58608" x1="30.5577" y1="41.8689" x2="30.5577" y2="83.5812" gradientUnits="userSpaceOnUse">
<stop stop-color="white"/>
<stop offset="1" stop-color="white" stop-opacity="0"/>
</linearGradient>
<linearGradient id="paint4_linear_8029_58608" x1="56.084" y1="91.98" x2="92.2078" y2="71.1239" gradientUnits="userSpaceOnUse">
<stop stop-color="white"/>
<stop offset="1" stop-color="white" stop-opacity="0"/>
</linearGradient>
<linearGradient id="paint5_linear_8029_58608" x1="87.3679" y1="45.0938" x2="51.244" y2="24.2377" gradientUnits="userSpaceOnUse">
<stop stop-color="white"/>
<stop offset="1" stop-color="white" stop-opacity="0"/>
</linearGradient>
</defs>
</svg>
